/* XPM */
static char *result[] = {
/* columns rows colors chars-per-pixel */
"60 60 209 2 ",
"   c #1B080A",
".  c #2C070C",
"X  c #3B0102",
"o  c #360809",
"O  c #261418",
"+  c #391216",
"@  c #3A1D23",
"#  c #3D252F",
"$  c #440102",
"%  c #4B0102",
"&  c #4E090D",
"*  c #520101",
"=  c #570709",
"-  c #480B15",
";  c #551014",
":  c #621B1E",
">  c #581724",
",  c #4B1729",
"<  c #6A1426",
"1  c #721830",
"2  c #55232C",
"3  c #492C37",
"4  c #5A373B",
"5  c #74213D",
"6  c #79213D",
"7  c #6B2A37",
"8  c #383943",
"9  c #543844",
"0  c #7B2745",
"q  c #3E414B",
"w  c #47474C",
"e  c #474A57",
"r  c #56565A",
"t  c #5B4859",
"y  c #6E454D",
"u  c #4F5967",
"i  c #595C66",
"p  c #555566",
"a  c #7A5B62",
"s  c #5C6876",
"d  c #56616D",
"f  c #6D6E6E",
"g  c #646C7A",
"h  c #686A76",
"j  c #7D797B",
"k  c #72697A",
"l  c #8C213B",
"z  c #822A4A",
"x  c #8B2A4B",
"c  c #812645",
"v  c #9B2445",
"b  c #9C2E53",
"n  c #893656",
"m  c #9E3154",
"M  c #A82A4A",
"N  c #B92D56",
"B  c #A73358",
"V  c #B73A64",
"C  c #AA3F63",
"Z  c #C5335D",
"A  c #C53A67",
"S  c #DD3567",
"D  c #E83E74",
"F  c #F63E77",
"G  c #924C67",
"H  c #BD5679",
"J  c #806B70",
"K  c #CA416D",
"L  c #CA4672",
"P  c #D44673",
"I  c #D94A77",
"U  c #D54D78",
"Y  c #E9487C",
"T  c #F5457D",
"R  c #6C7A88",
"E  c #747A85",
"W  c #8B7B82",
"Q  c #BC7A99",
"!  c #DC5A87",
"~  c #FB4985",
"^  c #E65887",
"/  c #FD528E",
"(  c #F35689",
")  c #FE5291",
"_  c #FE5B9C",
"`  c #FB5A96",
"'  c #E6618E",
"]  c #EF6C98",
"[  c #F86599",
"{  c #FD5EA1",
"}  c #FE63A2",
"|  c #FE69A6",
" . c #FE74AD",
".. c #FA77A8",
"X. c #7C8A96",
"o. c #7D818F",
"O. c #7F93A4",
"+. c #838B95",
"@. c #868995",
"#. c #84939C",
"$. c #88969F",
"%. c #999999",
"&. c #898688",
"*. c #A7969E",
"=. c #A48F9E",
"-. c #8496A2",
";. c #8699A2",
":. c #8C9DA5",
">. c #8B9DA8",
",. c #8597A9",
"<. c #959DA6",
"1. c #8B9FB3",
"2. c #AB9EA4",
"3. c #8DA0A7",
"4. c #8EA2AB",
"5. c #95A1A6",
"6. c #93A3AB",
"7. c #99A5AD",
"8. c #95A8AF",
"9. c #9BA9AE",
"0. c #9FA1A2",
"q. c #8FA3B3",
"w. c #94AAB4",
"e. c #9CACB3",
"r. c #96ACB9",
"t. c #99AFBB",
"y. c #95A6B1",
"u. c #97B1BE",
"i. c #9AB2BE",
"p. c #A9AAA9",
"a. c #A2AEB4",
"s. c #A3B1B7",
"d. c #A4B4BB",
"f. c #A9B6BC",
"g. c #ABB9BE",
"h. c #ABB1B4",
"j. c #B5B7BA",
"k. c #D588A6",
"l. c #9DB5C2",
"z. c #9EB9C7",
"x. c #9DBAC9",
"c. c #A2B9C5",
"v. c #ADBCC3",
"b. c #A2BDCB",
"n. c #A7B7C4",
"m. c #B1BEC5",
"M. c #B1BFC8",
"N. c #ABC3CF",
"B. c #A4C1CE",
"V. c #B2C1C7",
"C. c #B5C4CB",
"Z. c #B9C6CC",
"A. c #BBC9CF",
"S. c #A4C2D2",
"D. c #ADC8D5",
"F. c #A7C6D9",
"G. c #AACCDE",
"H. c #A8C6D6",
"J. c #B3CAD4",
"K. c #BDCCD3",
"L. c #B9C9D4",
"P. c #BDD0D9",
"I. c #BAD0DB",
"U. c #ACCDE1",
"Y. c #AED1E5",
"T. c #B2D6EA",
"R. c #B5DAED",
"E. c #BBDBEC",
"W. c #B4D3E4",
"Q. c #BADEF1",
"!. c #B6DAF1",
"~. c #BDE2F5",
"^. c #C4C6C9",
"/. c #C1CDD5",
"(. c #C4CED6",
"). c #C4D3DB",
"_. c #C9D5DD",
"`. c #C5D3D9",
"'. c #D6D9DB",
"]. c #DFDFDF",
"[. c #C7D8E0",
"{. c #CCDCE3",
"}. c #CBD6E0",
"|. c #D1DDE4",
" X c #CEE0E7",
".X c #CFE0E8",
"XX c #D2E1E7",
"oX c #D5E5EB",
"OX c #DAE6EC",
"+X c #DDE9ED",
"@X c #D7E6EC",
"#X c #C3E4F4",
"$X c #DCECF3",
"%X c #D7E8F0",
"&X c #DFF1F8",
"*X c #DFF0F7",
"=X c #E6E9E9",
"-X c #E2EDF2",
";X c #E2EFF9",
":X c #E4F2F5",
">X c #ECF3F5",
",X c #E3F3FA",
"<X c #EAF6F9",
"1X c #E7F8FC",
"2X c #EBFAFD",
"3X c #F3F5F5",
"4X c #F4FDFE",
"5X c #FCFFFF",
"6X c None",
/* pixels */
"6X6X6X6X6X6X6X6X6X6X6X6X6X6X6X6X6X6X6X6X6X6X6X6X6X6X6X6X6X6X6X6X6X6X6X6X6X6X6X6X6X6X6X6X6X6X6X6X6X6X6X6X6X6X6X6X6X6X6X6X",
"6X6X6X6X6X6X6X6X6X6X6X6X6X6X6X6X6X6X6X6X6X6X6X6X6X6X6X6X6X6X6X6X6X6X6X6X6X6X6X6X6X6X6X6X6X6X6X6X6X6X6X6X6X6X6X6X6X6X6X6X",
"6X6X6X6X6X6X6X6X6X6X6X6X6X6X6X6X6X6X6X6X6X6X6X6X6X6X6X6X6X6X6X6X6X6X6X6X6X6X6X6X6X6X6X6X6X6X6X6X6X6X6X6X6X6X6X6X6X6X6X6X",
"6X6X6X6X6X6X6X6X6X6X6X6X6X6X6X6X6X6X6X6X6X6X6X6X6X6X6X6X6X6X6X6X6X6X6X6X6X6X6X6X6X6X6X6X6X6X6X6X6X6X6X6X6X6X6X6X6X6X6X6X",
"6X6X6X6X6X6X6X6X6X6X6X6X6X6X6X6X6X6X6X6X6X6X6X6X6X6X6X6X6X6X6X6X6X6X6X6X6X6X6X6X6X6X6X6X6X6X6X6X6X6X6X6X6X6X6X6X6X6X6X6X",
"6X6X6X6X6X6X6X6X6X6X6X6X6X6X6X6X6X6X6X6X6X6X6X6X6X6X6X6X6X6X6X6X6X6X6X6X6X6X6X6X6X6X6X6X6X6X6X6X6X6X6X6X6X6X6X6X6X6X6X6X",
"6X6X6X6X6X6X6X6X6X6X6X6X6X6X6X6X6X6X6X6X6X6X6X6X6X6X-X-X+X+X$X@XoX6X6X6X6X6X6X6X6X6X6X6X6X6X6X6X6X6X6X6X6X6X6X6X6X6X6X6X",
"6X6X6X6X6X6X6X6X6X6X6X6X6X6X6X6X6X6X6X6X6X6X-X>X<X<X<X<X<X<X:X:X$XoX X{.6X6X6X6X6X6X6X6X6X6X6X6X6X6X6X6X6X6X6X6X6X6X6X6X",
"6X6X6X6X6X6X6X6X6X6X6X6X6X6X6X6X6X6X6X6X:X<X3X4X5X4X4X4X3X4X3X2X>X:X$XoX XP.6X6X6X6X6X6X6X6X6X6X6X6X6X6X6X6X6X6X6X6X6X6X",
"6X6X6X6X6X6X6X6X6X6X6X6X6X6X6X6X6X6X-X<X4X4X5X5X5X5X5X5X5X5X4X4X2X2X<X$X@X X).P.6X6X6X6X6X6X6X6X6X6X6X6X6X6X6X6X6X6X6X6X",
"6X6X6X6X6X6X6X6X6X6X6X6X6X6X6X6X6X:X3X4X4X5X5X5X5X5X5X5X5X5X5X4X2X2X<X,X*X%X XP.K.6X6X6X6X6X6X6X6X6X6X6X6X6X6X6X6X6X6X6X",
"6X6X6X6X6X6X6X6X6X6X6X6X6X6X6X6X:X4X5X5X5X5X5X5X5X5X5X5X5X5X5X4X4X4X2X1X&X*X.X{.K.A.6X6X6X6X6X6X6X6X6X6X6X6X6X6X6X6X6X6X",
"6X6X6X6X6X6X6X6X6X6X6X6X6X6X6X:X3X4X5X5X5X5X5X5X5X5X5X5X5X5X5X5X4X2X2X1X,X,X%XXX_.K.C.C.6X6X6X6X6X6X6X6X6X6X6X6X6X6X6X6X",
"6X6X6X6X6X6X6X6X6X6X6X6X6X6X:X3X5X5X5X5X5X5X5X5X5X5X4X3X5X5X5X4X4X4X2X2X,X,X%XoX{.).A.V.6X6X6X6X6X6X-X6X6X6X6X6X6X6X6X6X",
"6X6X6X6X6X6X6X6X6X6X6X6X6X+X4X5X5X5X5X5X5X5X5X5X5X3X%.5X5X5X5X4X4X4X2X1X,X&X$X@X{.).K.V.g.6X6X6X+X<X>XC.6X6X6X6X6X6X6X6X",
"6X6X6X6X6X6X6X6X6X6X6X6X6X<X5X5X5X5Xp.j.5X5X5X5X=Xf =X5X4X5X4X4X2X4X2X1X,X&X$X@XXX'.(.Z.g.s.6XOX<X4XoXf.e.6X6X6X6X6X6X6X",
"6X6X6X6X6X6X6X6X6X6X6X6X-X4X5X5X5X].%.r %.'.^.J &.>X5X4X4X4X4X4X2X2X1X<X;X$XOX|.|._.(.Z.j.d.|.<X4X&XL.e.d.6X6X6X6X6X6X6X",
"6X6X6X6X6X6X6X6X6X6X6X6X>X5X5X5X].f 3X3X%.w E r 5X5X5X5X5X4X4X2X2X2X1X,X$X+X@X|.|._.(.Z.C._.<X<X,X Xv.9.c.6X6X6X6X6X6X6X",
"6X6X6X6X6X6X6X6X6X6X6X+X>Xh.=Xh.f 3X5X5X|.e g w 5X5X4X5X4X4X4X2X2X1X,X&X$XOX|.{._._./.A.`.:X1X,X XA.e.w.N.6X6X6X6X6X6X6X",
"6X6X6X6X6X6X6X6X6X6X6X:X5Xj.r @.0.5X5X5X=X8 q r 5X5X5X4X4X4X4X2X,X,X,X$XOXoX|.{.`.(.A.Z.{.:X&X.XL.v.7.i.6X6X6X6X6X6X6X6X",
"6X6X6X6X6X6X6X6X6X6X@X<X4X5Xh g %.5X5X5X4X&.w '.5X5X4X4X4X2X1X1X,X&X$X@X@X X'.`.`.K.Z.C.{.oX.XP.V.t.8.B.6X6X6X6X6X6X6X6X",
"6X6X6X6X6X6X6X6X6X6XoX<X4X4Xi q ^.5X5X4X4X4X4X5X4X4X4X1X,X&X&X,X&X*X$X@XXX X_.`./.Z.V.m.K.{.P.C.e.8.t.J.6X6X6X6X6X6X6X6X",
"6X6X6X6X6X6X6X6X6X6X@X1X4X4Xg.f 4X5X4X5X5X4X4X4X2X2X,X%X[.[.{.@X$X%XoXoX{._.`.P.Z.C.m.g.C.K.V.d.8.6.b.6X6X6X6X6X6X6X6X6X",
"6X6X6X6X6X6X6X6X6X6XoX,X<X2X4X4X4X4X4X4X4X4X2X2X,X$X[.V.e.v.P. XoX@XoXoX_._.`.A.Z.m.g.f.v.v.d.w.4.w.D.6X6X6X6X6X6X6X6X6X",
"6X6X6X6X6X6X6X+XOXXXXX$X,X,X1X1X2X1X1X1X1X1X,X%X[.v.>.X.h <.C._. X X X X).`.P.Z.V.v.f.d.d.d.y.4.4.x.K.6X6X6X6X6X6X6X6X6X",
"6X6X6X6X6X6XOX4X5X>X{.@X%X&X&X,X,X&X,X;X&X%X).v.4.X.R u 2 E M.(._. X X X`.P.A.V.m.g.h.s.e.9.6.:.r.N.B.-X@X6X6X6X6X6X6X6X",
"6X6X6X6X6X6XXX5X5X3XP.K.P.(.{..X.X{.[.K.v.<.+.s u +.n.R 2 a v.K.[. X_.).P.A.Z.V.g.f.a.9.9.6.;.6.z.N.e.1XoXf.6X6X6X6X6X6X",
"6X6X6X6X6X6XA.+X4X3XJ.V.#.:.7.9.7.6.#.o.s g g i e j.{.-.< y M.(.P._.).P.K.A.V.V.f.s.9.9.8.4.:.w.B.u.3.).C.s.6X6X6X6X6X6X",
"6X6X6X6X6X6X6XC.@X,XC.V.6.i w E g e g E s p /.>.9 a OX1.= 7 Z.`.).).P.P.A.C.V.g.h.e.9.6.6.:.:.r.z.t.y.e.f.v.6X6X6X6X6X6X",
"6X6X6X6X6X6X6X6XC.XXC.Z.v.:.O h.<.d i |.-.3 2.b.> = /.>.= : /.`.P.P.P.A.C.V.g.f.e.9.8.5.;.:.6.i.c.l.i.i.b.6X6X6X6X6X6X6X",
"6X6X6X6X6X6X6X6Xa.f.v.Z.L.C.r t OX,.3 k q.- & y % * 4 k % ; (.).K.K.L.N.V.V.f.e.9.8.6.:.:.3.w.l.b.z.z.B.I.6X6X6X6X6X6X6X",
"6X6X6X6X6X6X6X6X6X5.e.C.K.K.a.O ^.c.- $ 2 $ % * * * * % X + `.`.P.A.Z.V.V.d.s.e.8.6.5.3.>.6.u.c.b.S.N.U.6X6X6X6X6X6X6X6X",
"6X6X6X6X6X6X6X6X6X6X6Xv.K.`._.f 3 q.o $ $ % % % * % $ X .   ).).K.L.C.v.g.d.e.8.6.3.3.3.4.r.z.B.F.G.I.E.6X6X6X6X6X6X6X6X",
"6X6X6X6X6X6X6X6X6X6X6Xa.Z.`.|.(.. + X $ $ $ $ % & - - + . O )._.P.C.M.n.e.e.6.6.3.3.3.4.w.i.x.H.G.Y.R.#X6X6X6X6X6X6X6X6X",
"6X6X6X6X6X6X6X6X6X6X6X9.g.L._.|.&.X X $ $ $ ; 1 > v M l ; @ _.(.L.v.n.s.e.6.3.3.3.3.4.w.u.x.F.U.Y.T.#X6X6X6X6X6X6X6X6X6X",
"6X6X6X6X6X6X6X6X6X6X6X6Xe.m./.{.'.4 X X X & N v N S Z M 1 4 `./.V.f.s.e.6.4.3.3.3.4.w.u.B.S.G.Y.R.Q.6X6X6X6X6X6X6X6X6X6X",
"6X6X6X6X6X6X6X6X6X6X6X6X<.s.C._.|.(.+ X X Z Z N F F S B < a (.M.n.a.8.6.6.:.;.3.4.w.u.x.S.G.Y.T.Q.#X6X6X6X6X6X6X6X6X6X6X",
"6X6X6X6X6X6X6X6X6X6X6X6X6X5.g.Z.}.|.*.. v D N D ~ F Y B < W Z.n.e.7.6.3.:.;.>.4.w.u.x.S.G.Y.T.!.#X6X6X6X6X6X6X6X6X6X6X6X",
"6X6X6X6X6X6X6X6X6X6X6X6X6X<.<.d.M.`.|.=.T D A ~ ~ ~ Y B , @.f.a.y.5.:.;.;.3.4.q.u.z.F.U.Y.T.!.~.6X6X6X6X6X6X6X6X6X6X6X6X",
"6X6X6X6X6X6X6X6X6X6X6X6X6X6X:.<.a.v./.k.~ D Y ) ) ~ P b , E 7.<.6.;.$.;.:.4.w.u.z.S.U.Y.T.R.~.6X6X6X6X6X6X6X6X6X6X6X6X6X",
"6X6X6X6X6X6X6X6X6X6X6X6X6X6X6X6.5.8.a.^ ) ~ ) _ ) ~ A x 3 g #.-.#.O.;.O.q.r.u.z.x.U.Y.T.R.Q.6X6X6X6X6X6X6X6X6X6X6X6X6X6X",
"6X6X6X6X6X6X6X6X6X6X6X6X6X6X6X6Xw.4.=.` _ / _ _ / T A c t E X.+.#.O.3.q.w.r.z.S.F.U.R.R.Q.6X6X6X6X6X6X6X6X6X6X6X6X6X6X6X",
"6X6X6X6X6X6X6X6X6X6X6X6X6X6X6X6X6Xd.Q } } { } _ / Y V 6 k o.#.-.3.4.q.w.l.z.S.F.Y.T.!.Q.6X6X6X6X6X6X6X6X6X6X6X6X6X6X6X6X",
"6X6X6X6X6X6X6X6X6X6X6X6X6X6X6X6X6X6X! } | | } ` ~ P B 5 X.-.>.1.w.w.w.l.x.x.F.U.T.T.6X6X6X6X6X6X6X6X6X6X6X6X6X6X6X6X6X6X",
"6X6X6X6X6X6X6X6X6X6X6X6X6X6X6X6X6X6X! }  . .| [ Y K B 5 <.w.r.r.u.u.l.x.B.H.G.W.6X6X6X6X6X6X6X6X6X6X6X6X6X6X6X6X6X6X6X6X",
"6X6X6X6X6X6X6X6X6X6X6X6X6X6X6X6X6X6X^ |  ...[ ( U K B 5 t.l.l.z.z.z.B.N.G.I.6X6X6X6X6X6X6X6X6X6X6X6X6X6X6X6X6X6X6X6X6X6X",
"6X6X6X6X6X6X6X6X6X6X6X6X6X6X6X6X6X6X^ [  .k.] ^ P K m 5 v.N.N.N.N.D.D.6X6X6X6X6X6X6X6X6X6X6X6X6X6X6X6X6X6X6X6X6X6X6X6X6X",
"6X6X6X6X6X6X6X6X6X6X6X6X6X6X6X6X6X6XU ` .. .] ^ L V b 5 6X6X6X6X6X6X6X6X6X6X6X6X6X6X6X6X6X6X6X6X6X6X6X6X6X6X6X6X6X6X6X6X",
"6X6X6X6X6X6X6X6X6X6X6X6X6X6X6X6X6X6XL ^ ] ] ' ! L V x 0 6X6X6X6X6X6X6X6X6X6X6X6X6X6X6X6X6X6X6X6X6X6X6X6X6X6X6X6X6X6X6X6X",
"6X6X6X6X6X6X6X6X6X6X6X6X6X6X6X6X6X6X6XL ^ ' ! L V m 0 0 6X6X6X6X6X6X6X6X6X6X6X6X6X6X6X6X6X6X6X6X6X6X6X6X6X6X6X6X6X6X6X6X",
"6X6X6X6X6X6X6X6X6X6X6X6X6X6X6X6X6X6X6XC L L L H B x 0 n 6X6X6X6X6X6X6X6X6X6X6X6X6X6X6X6X6X6X6X6X6X6X6X6X6X6X6X6X6X6X6X6X",
"6X6X6X6X6X6X6X6X6X6X6X6X6X6X6X6X6X6X6X6Xm V V M x 0 0 6X6X6X6X6X6X6X6X6X6X6X6X6X6X6X6X6X6X6X6X6X6X6X6X6X6X6X6X6X6X6X6X6X",
"6X6X6X6X6X6X6X6X6X6X6X6X6X6X6X6X6X6X6X6X6Xz z z z n 6X6X6X6X6X6X6X6X6X6X6X6X6X6X6X6X6X6X6X6X6X6X6X6X6X6X6X6X6X6X6X6X6X6X",
"6X6X6X6X6X6X6X6X6X6X6X6X6X6X6X6X6X6X6X6X6X6XG G 6X6X6X6X6X6X6X6X6X6X6X6X6X6X6X6X6X6X6X6X6X6X6X6X6X6X6X6X6X6X6X6X6X6X6X6X",
"6X6X6X6X6X6X6X6X6X6X6X6X6X6X6X6X6X6X6X6X6X6X6X6X6X6X6X6X6X6X6X6X6X6X6X6X6X6X6X6X6X6X6X6X6X6X6X6X6X6X6X6X6X6X6X6X6X6X6X6X",
"6X6X6X6X6X6X6X6X6X6X6X6X6X6X6X6X6X6X6X6X6X6X6X6X6X6X6X6X6X6X6X6X6X6X6X6X6X6X6X6X6X6X6X6X6X6X6X6X6X6X6X6X6X6X6X6X6X6X6X6X",
"6X6X6X6X6X6X6X6X6X6X6X6X6X6X6X6X6X6X6X6X6X6X6X6X6X6X6X6X6X6X6X6X6X6X6X6X6X6X6X6X6X6X6X6X6X6X6X6X6X6X6X6X6X6X6X6X6X6X6X6X",
"6X6X6X6X6X6X6X6X6X6X6X6X6X6X6X6X6X6X6X6X6X6X6X6X6X6X6X6X6X6X6X6X6X6X6X6X6X6X6X6X6X6X6X6X6X6X6X6X6X6X6X6X6X6X6X6X6X6X6X6X",
"6X6X6X6X6X6X6X6X6X6X6X6X6X6X6X6X6X6X6X6X6X6X6X6X6X6X6X6X6X6X6X6X6X6X6X6X6X6X6X6X6X6X6X6X6X6X6X6X6X6X6X6X6X6X6X6X6X6X6X6X",
"6X6X6X6X6X6X6X6X6X6X6X6X6X6X6X6X6X6X6X6X6X6X6X6X6X6X6X6X6X6X6X6X6X6X6X6X6X6X6X6X6X6X6X6X6X6X6X6X6X6X6X6X6X6X6X6X6X6X6X6X"
};
