/* XPM */
static char *result[] = {
/* columns rows colors chars-per-pixel */
"60 60 168 2 ",
"   c #000000",
".  c #0A0201",
"X  c #0B0A0A",
"o  c #100404",
"O  c #190803",
"+  c #140C0B",
"@  c #190909",
"#  c #18110F",
"$  c #121212",
"%  c #1F1010",
"&  c #1B1B1B",
"*  c #240600",
"=  c #230C00",
"-  c #320A00",
";  c #3B0B00",
":  c #331601",
">  c #3A170E",
",  c #3F1405",
"<  c #2D1111",
"1  c #211914",
"2  c #251414",
"3  c #361615",
"4  c #361C1C",
"5  c #391D1D",
"6  c #2A211C",
"7  c #242424",
"8  c #292929",
"9  c #302522",
"0  c #3E2424",
"q  c #312B2B",
"w  c #343434",
"e  c #3C3C3C",
"r  c #410D00",
"t  c #4D0D00",
"y  c #530F00",
"u  c #461404",
"i  c #491302",
"p  c #481907",
"a  c #47170C",
"s  c #4B160A",
"d  c #41180F",
"f  c #4D190A",
"g  c #441B05",
"h  c #581200",
"j  c #531F00",
"k  c #581F00",
"l  c #551A0B",
"z  c #5E1C0C",
"x  c #551102",
"c  c #4B1D11",
"v  c #661100",
"b  c #691300",
"n  c #6A1A00",
"m  c #621D0C",
"M  c #731500",
"N  c #7D1B01",
"B  c #7D1700",
"V  c #5C2301",
"C  c #5D2800",
"Z  c #5A3D07",
"A  c #42241C",
"S  c #48271D",
"D  c #4D2A1C",
"F  c #602701",
"G  c #662D04",
"H  c #732100",
"J  c #7B2100",
"K  c #6E3302",
"L  c #743B03",
"P  c #792B15",
"I  c #432626",
"U  c #462D28",
"Y  c #532E25",
"T  c #42312C",
"R  c #563725",
"E  c #5B3226",
"W  c #5B3329",
"Q  c #4A3636",
"!  c #423936",
"~  c #523E3E",
"^  c #583E39",
"/  c #60382E",
"(  c #633E34",
")  c #6C3A3A",
"_  c #6A4E0B",
"`  c #7B4203",
"'  c #674036",
"]  c #634139",
"[  c #6B4339",
"{  c #6A4134",
"}  c #714034",
"|  c #424242",
" . c #4B4B4B",
".. c #534643",
"X. c gray32",
"o. c #6E4242",
"O. c #811700",
"+. c #851B01",
"@. c #8C1D00",
"#. c #911C00",
"$. c #9B1E00",
"%. c #872100",
"&. c #8B2100",
"*. c #80240D",
"=. c #952300",
"-. c #9A2201",
";. c #9D2D00",
":. c #8B3601",
">. c #823D00",
",. c #903B02",
"<. c #842C13",
"1. c #A52100",
"2. c #AB2500",
"3. c #A52901",
"4. c #AC2A01",
"5. c #B22300",
"6. c #B42A00",
"7. c #BB2C00",
"8. c #B43105",
"9. c #BC3304",
"0. c #C52900",
"q. c #C23504",
"w. c #C53807",
"e. c #C6350A",
"r. c #C9370B",
"t. c #C73B0A",
"y. c #CB3A0C",
"u. c #D23B0E",
"i. c #CF3A10",
"p. c #D23D10",
"a. c #D83F10",
"s. c #804000",
"d. c #8A4F07",
"f. c #925906",
"g. c #90590C",
"h. c #9B5C0B",
"j. c #B05E0B",
"k. c #9D6409",
"l. c #A46B0B",
"z. c #B4620C",
"x. c #B0770D",
"c. c #B2790F",
"v. c #B67D11",
"b. c #9D6A25",
"n. c #A26E26",
"m. c #A57225",
"M. c #A97831",
"N. c #D54210",
"B. c #DA4311",
"V. c #E24613",
"C. c #EB4617",
"Z. c #E44816",
"A. c #E74A18",
"S. c #E94C18",
"D. c #EE5118",
"F. c #F4521A",
"G. c #FF5221",
"H. c #956F6F",
"J. c #967777",
"K. c #BC8312",
"L. c #BE8D35",
"P. c #C58C12",
"I. c #D19815",
"U. c #C18C23",
"Y. c #C6932B",
"T. c #C59436",
"R. c #C29545",
"E. c #9B9090",
/* pixels */
"  & 8 | X.X.X.X.X.X.X.X.X.X.X.X.X.X.X.X.X.X.X.X.X.X.X.X. .e e  .X.X.X.X.X.X.X.X.X.X.X.X.X.X.X.X.X.X.X.X.X.X.X.X.| w $   ",
"  X & 7 7 7 7 7 7 7 7 7 7 7 7 7 7 7 7 7 7 7 8 w w w e | w 8 8 w | e w w w w 8 7 7 7 7 7 7 7 7 7 7 7 7 7 7 7 7 7 1 & $   ",
"  X # 0 ~ ~ 0 % X . X X X X X . X X X X X X $ $ & $ & & $ $ $ & & & $ & X X X X X X X   X X . X . X X X @ 0 ~ ~ 0 $ .   ",
"  . < ) J.J.) <           . O - > u u g p p a f s f f f a ; ; u f f f f f a f a g p p , - O .           < ) J.J.) < X   ",
"  $ 5 o.E.E.o.<         . * b ;.N.Z.D.D.D.D.F.G.G.G.G.G.C.7.7.C.G.G.G.G.G.G.D.D.S.S.A.N.;.b * .         < o.E.E.o.5 $   ",
"  $ 5 ) H.H.) <         ; M b ;.N.Z.A.A.D.D.D.F.G.G.G.G.C.7.7.C.G.G.G.G.D.F.D.D.S.A.Z.N.;.b M ;         < ) H.J.) 5 $   ",
"  $ 2 3 I I 3 @       r %.-.n ;.t.Z.A.A.A.D.D.D.F.G.G.G.C.7.7.C.G.G.G.F.D.D.D.S.A.A.V.N.;.b ;.*.r       @ 3 I I 3 2 $   ",
"  X X o o o . .   . ; N 8.8.b ;.t.B.Z.A.A.D.D.D.C.F.G.G.C.7.0.C.G.G.F.D.D.D.S.A.A.V.B.t.;.b 3.8.+.; .   . o o o o X .   ",
"  .             . - +.6.q.4.b ;.t.B.B.A.A.A.S.D.F.F.F.G.C.7.7.C.G.F.D.D.D.S.A.A.A.B.B.9.;.b 4.q.4.+.; .             .   ",
"  $ X .       . - @.2.7.9.4.b ;.t.N.B.B.A.A.A.S.F.S.F.F.C.7.7.C.G.D.D.D.S.A.S.A.B.B.N.N.;.b 3.q.8.4.@.- .       . + $   ",
"  $ > u       ; +.4.8.9.q.3.b ;.9.N.N.B.B.A.S.A.C.D.D.D.V.7.7.V.D.D.D.A.A.D.A.B.N.N.y.9.;.n 3.9.9.7.4.O.;       u > $   ",
"  $ l N r . r N 1.4.6.7.8.;.b ;.9.t.p.N.N.B.B.A.A.S.D.D.V.0.0.V.D.D.A.A.A.B.N.N.N.N.i.9.;.b 3.8.7.6.4.1.N r . r N l $   ",
"  $ z -.+.h O.1.4.4.4.6.7.3.b =.9.y.N.N.N.B.B.Z.A.A.S.S.V.0.0.C.D.S.A.D.B.B.N.N.N.N.t.8.=.b 3.7.6.4.4.4.1.+.x +.-.z $   ",
"  $ z 1.1.1.1.2.4.4.5.4.6.-.b =.8.y.i.N.N.N.N.B.Z.S.S.S.a.0.0.V.S.A.A.B.B.N.N.N.N.i.i.9.=.b ;.6.4.4.4.4.1.1.1.1.1.z $   ",
"  $ z 1.1.1.1.1.2.4.4.4.4.=.b =.8.y.i.i.p.N.N.a.N.A.C.A.a.0.0.a.A.A.Z.B.B.N.N.N.i.i.t.8.=.b $.4.4.6.2.2.1.1.1.1.1.z $   ",
"  $ z 1.1.1.1.1.1.1.4.4.4.-.b =.6.9.t.i.p.p.B.B.N.N.Z.C.a.0.0.a.A.A.N.N.B.B.N.i.i.t.w.6.#.b =.4.4.4.1.1.1.1.1.1.1.z $   ",
"  $ z 1.1.1.1.1.1.1.1.4.4.-.v @.4.7.q.y.y.u.p.B.N.N.B.Z.p.5.5.a.Z.B.N.N.N.p.u.y.r.q.9.4.=.v =.4.2.2.1.1.1.1.1.1.1.z $   ",
"  $ z 1.1.1.1.1.1.1.1.2.2.=.b =.4.7.9.q.y.y.u.p.u.N.B.B.u.2.5.p.B.B.B.p.p.u.y.y.q.7.7.4.@.b =.4.2.1.1.1.1.1.1.1.1.z $   ",
"  $ m 1.1.1.1.1.1.1.1.1.2.#.v &.4.6.6.7.q.w.r.y.i.N.B.a.r.5.5.r.a.a.p.p.y.r.w.q.7.6.6.2.&.v #.2.1.1.1.1.1.1.1.1.1.z $   ",
"  $ m 1.1.1.1.1.1.1.1.1.1.#.v @.2.6.6.6.8.q.w.r.y.i.i.p.r.1.5.r.p.i.y.y.r.t.q.8.6.6.6.2.@.b #.1.1.1.1.1.1.1.1.1.1.z $   ",
"  $ z 1.1.1.1.1.1.1.1.1.1.#.b +.1.6.6.6.6.7.7.q.e.t.i.i.e.5.5.e.y.y.r.w.q.9.7.6.6.6.5.3.+.b #.1.1.1.1.1.1.1.1.1.1.z $   ",
"  $ z 1.1.1.1.1.1.1.1.1.1.#.v +.3.4.4.6.6.7.7.7.q.q.q.y.7.#.#.8.r.r.q.q.7.6.7.6.6.5.4.3.+.v #.1.1.1.1.1.1.1.1.1.1.z $   ",
"  $ z 1.1.1.1.2.1.1.1.1.1.#.v O.-.2.2.4.5.6.6.6.7.6.q.q.8.&.@.8.t.9.7.7.6.6.6.4.4.2.2.-.N v #.1.1.1.1.1.1.1.1.1.1.m $   ",
"  X c *.*.<.-.1.1.1.1.1.1.#.v O.$.1.1.2.4.4.6.6.6.6.6.e.8.&.&.8.9.6.5.6.6.6.6.2.2.2.1.$.O.v #.1.1.1.1.1.1.-.<.*.*.c X   ",
"  X & 7 8 w P -.3.1.1.1.1.#.v O.$.1.1.1.3.4.3.3.3.4.4.8.4.&.&.4.8.4.4.3.4.3.3.3.1.1.1.$.O.v #.1.1.1.1.3.-.P e 8 7 & X   ",
"    X $ $ 8 ! ..) 1.1.1.1.#.v O.$.1.1.3.>.s.` L >.4.4.4.3.J J 3.4.4.4.>.s.s.s.s.3.1.1.$.O.v #.2.1.1.2.) ..! 8 $ $ X     ",
"    X $ X & 7 7 9 D E ( ' ] ^ ( ] [ [ ' G l.T.L.G E E <.-.J J ;.<.E E G L.T.l.G ( [ [ [ ( ^ ] ' ) W D 9 & & & $ $ X     ",
"    @ 0 ~ ~ 0 % X & & 7 8 8 8 8 8 q T R V k.K.m.V D 6 S P J J P S 6 D V b.K.k.C R T 8 8 8 8 8 8 7 & $ X % 0 ~ ~ 0 @     ",
"    < ) J.J.) <                   O a K V ` d.` V K : 1 0 J J A 1 : K V ` d.` V K a O                   < ) J.J.) <     ",
"    < o.E.E.o.<                   : L f.C V p V F f.L : = J J = : L f.C V p V F f.L :                   < o.E.E.o.<     ",
"    < ) H.H.) <                   Z l.` V = . = V ` l.Z = J J = Z l.` C O . O F ` l.Z                   < ) H.H.) <     ",
"    @ 3 I I 3 @                   _ x.C = .   . = C c.h.n J J n h.c.C = .   . = C c._                   @ 4 I I 3 @     ",
"    . . o o o . . - r r r ; - r ; g.v.k i r u u i k v.z.%.J J %.z.v.V u u r u u k v.g.r ; - ; r r r - o . o o o o .     ",
"            O * r M +.+.@.B v O.+.z.K.K J &.&.&.J K K.z.%.J J %.z.K.K J &.&.&.J K K.z.+.O.b O.+.+.+.M r * o             ",
"    . . . . t B #.=.=.=.$.O.v O.@.z.P.k.G J &.J G k.P.j.%.J J %.j.P.k.G J &.J G k.P.j.@.O.v +.$.#.=.=.#.B t o o . .     ",
"  X s @.%.+.@.$.1.1.1.1.1.#.v O.&.:.k.I.k.K V K k.I.l.:.&.J J @.:.k.I.k.K V K k.I.k.:.#.O.v #.1.1.1.1.1.$.@.+.+.+.p X   ",
"  X l =.=.-.1.1.1.1.1.1.1.#.v O.#.-.,.k.x.L.R.T.P.k.,.=.=.J J =.=.,.k.P.T.R.L.x.k.,.-.#.O.v #.1.1.1.1.1.1.$.1.$.=.l X   ",
"  X l -.-.1.1.1.1.1.1.1.1.#.v O.$.1.=.:.d.b.M.n.h.:.=.1.=.J J =.1.=.:.h.b.M.b.d.:.=.1.$.O.v #.1.1.1.1.1.1.1.1.$.-.l X   ",
"  $ z 1.1.1.1.1.1.1.1.1.1.#.v O.$.1.$.=.J H M n J =.$.1.=.J J $.1.1.=.H H H H H =.-.1.$.O.v #.1.1.1.1.1.1.1.1.1.1.z $   ",
"  $ m 1.1.1.1.1.1.1.1.1.1.#.v O.$.1.1.1.1.1.1.5.1.1.1.1.-.J J =.1.1.1.1.1.1.3.1.1.1.1.$.O.v #.1.1.1.1.1.1.1.1.1.1.m $   ",
"  $ m 1.1.1.1.1.1.1.1.1.1.#.v O.$.1.1.1.1.1.1.1.1.1.1.1.=.J J -.1.1.1.1.1.1.1.1.1.1.1.$.O.v #.1.1.1.1.1.1.1.1.1.1.z $   ",
"  $ z 1.1.1.1.1.1.1.1.1.1.#.v O.$.1.1.1.1.1.1.1.1.1.1.1.$.J J -.1.1.1.1.1.1.1.1.1.1.1.$.O.v #.1.1.1.1.1.1.1.1.1.1.z $   ",
"  $ z 1.1.1.1.1.1.1.1.1.1.#.v O.$.1.1.1.1.1.1.1.1.1.1.1.=.J J =.1.1.1.1.1.1.1.1.1.1.1.$.O.v #.1.1.1.1.1.1.1.1.1.1.z $   ",
"  $ z 1.1.5.1.1.1.1.1.1.1.#.v O.$.1.1.1.1.1.1.1.1.1.1.1.=.J N =.1.1.1.1.1.1.1.1.1.1.1.$.O.v #.1.1.1.1.1.1.1.1.1.1.z $   ",
"  $ z 1.1.1.1.1.1.1.1.1.1.#.v O.$.1.1.1.1.1.1.1.1.1.1.1.-.J J -.1.1.1.1.1.1.1.1.1.1.1.$.O.v #.1.1.1.1.1.1.1.1.1.1.z $   ",
"  $ z 1.1.1.1.1.1.1.1.1.1.#.v O.$.1.1.1.1.1.1.1.1.1.1.1.=.J J =.1.1.1.1.1.1.1.1.1.1.1.$.O.v #.1.1.1.1.1.1.1.1.1.1.z $   ",
"  $ z 1.1.1.1.1.1.1.1.1.1.#.v O.$.1.1.1.1.1.1.1.1.1.1.1.-.N J -.1.1.1.1.1.1.1.1.1.1.1.$.O.v #.1.1.1.1.1.1.1.1.1.1.z $   ",
"  $ m 1.#.m +.$.1.1.1.1.1.#.v O.$.1.1.1.1.1.1.1.1.1.1.1.=.J J =.1.1.1.1.1.1.1.1.1.1.1.$.O.v #.1.1.1.1.2.$.+.m @.1.z $   ",
"  $ z &.x $ s +.1.1.1.1.1.@.v O.$.1.1.1.1.1.1.1.1.1.1.1.$.J J =.1.1.1.1.1.1.1.1.1.1.1.$.O.v #.1.1.1.1.$.O.s # x @.V $   ",
"  $ d x     $ a +.1.1.1.1.#.v O.$.1.1.1.1.1.1.1.1.1.1.2.=.J N -.1.1.1.1.1.1.1.1.1.1.1.$.O.v #.1.1.1.1.+.a $     x d $   ",
"  $ X .       + d +.1.1.1.#.v O.$.1.1.1.1.1.1.1.1.1.1.1.#.J J -.5.1.1.1.1.1.1.1.1.1.1.$.O.v #.1.1.1.+.d $       . + $   ",
"  . .           + d +.$.1.#.v O.$.1.1.1.1.1.1.1.1.1.1.1.-.J J -.1.1.1.1.1.1.1.1.1.1.1.$.O.v #.1.$.+.d @ .           .   ",
"    @ 4 Q Q 4 @ . + d N $.#.v O.$.1.1.1.1.1.1.1.1.1.1.1.-.J J =.1.1.1.1.1.1.1.1.1.1.1.$.O.v #.-.N a X X + 4 Q Q 4 @     ",
"    < ) J.J.) <     $ s +.#.v O.$.1.1.1.1.1.1.1.1.1.1.1.#.J J $.1.1.1.1.1.1.1.1.1.1.1.$.O.v #.+.s $     < ) J.J.) <     ",
"    < o.E.E.o.<       $ l +.v B $.1.1.1.1.1.1.1.1.1.1.1.-.N J =.1.1.1.1.1.1.1.1.1.1.1.$.O.v @.l $       < o.E.E.o.<     ",
"    < ) H.H.) <       . $ > v +.$.1.1.1.1.1.1.1.1.1.1.1.@.b v #.1.1.1.1.1.1.1.1.1.1.1.$.O.v > $         < ) H.H.) <     ",
"    @ 3 I I 3 @           + 3 A Y E W / W ( [ ' [ [ [ [ ( U U ] ) ) [ [ ' ' ' W ( W W Y A < +           @ 3 I I 3 @     ",
"    . o . o o .           X $ & 7 7 7 8 8 w e e e e |  .e 8 8 e | | | ! e w w 8 8 7 7 7 & & .           . o . o o .     ",
"                            X X X X X X X $ $ & & & 7 8 7 & & 7 8 8 & & & & X X X X X X X X                             ",
"                                      .                                                                                 "
};
