/* XPM */
static char *result[] = {
/* columns rows colors chars-per-pixel */
"54 60 234 2 ",
"   c #1A0E14",
".  c #1B1619",
"X  c #120E0C",
"o  c #231313",
"O  c #2B1414",
"+  c #2B1C1C",
"@  c #27191B",
"#  c #331D1D",
"$  c #381917",
"%  c #2C0E0F",
"&  c #12291B",
"*  c #0D3914",
"=  c #153719",
"-  c #0A2A10",
";  c #0E0F27",
":  c #0E102C",
">  c #11122D",
",  c #181526",
"<  c #121432",
"1  c #16193C",
"2  c #181938",
"3  c #120F22",
"4  c #251A27",
"5  c #321E24",
"6  c #221D35",
"7  c #152C23",
"8  c #1B3A25",
"9  c #1A2534",
"0  c #282826",
"q  c #372729",
"w  c #233328",
"e  c #282638",
"r  c #382B36",
"t  c #3A3437",
"y  c #313933",
"u  c #3F211F",
"i  c #4C1C1B",
"p  c #471716",
"a  c #551918",
"s  c #43110F",
"d  c #681917",
"f  c #721617",
"g  c #43231C",
"h  c #56251F",
"j  c #68221D",
"k  c #7E231C",
"l  c #491F21",
"z  c #462A27",
"x  c #582726",
"c  c #4A332E",
"v  c #53322A",
"b  c #452C34",
"n  c #423234",
"m  c #43353C",
"M  c #483A3B",
"N  c #593737",
"B  c #672A23",
"V  c #7B2B22",
"C  c #78332A",
"Z  c #693C39",
"A  c #733230",
"S  c #0F4417",
"D  c #104A1A",
"F  c #12521D",
"G  c #1B4B2B",
"H  c #1A4627",
"J  c #185726",
"K  c #224828",
"L  c #275634",
"P  c #375938",
"I  c #325032",
"U  c #176728",
"Y  c #1E7D34",
"T  c #1B762F",
"R  c #2B6830",
"E  c #4B4A3B",
"W  c #64413B",
"Q  c #724D3B",
"!  c #45663B",
"~  c #577739",
"^  c #596538",
"/  c #6C612F",
"(  c #191D43",
")  c #1A1E49",
"_  c #1E224A",
"`  c #1E2344",
"'  c #1F2452",
"]  c #262445",
"[  c #212655",
"{  c #282B57",
"}  c #2C335A",
"|  c #373556",
" . c #362F43",
".. c #2C3369",
"X. c #363863",
"o. c #353C76",
"O. c #282F67",
"+. c #483C44",
"@. c #463E52",
"#. c #354E49",
"$. c #3D6047",
"%. c #4B4445",
"&. c #4B454A",
"*. c #5B4B4B",
"=. c #564648",
"-. c #554E51",
";. c #584B54",
":. c #5C5353",
">. c #5B5656",
",. c #4B5849",
"<. c #694644",
"1. c #784B48",
"2. c #68524C",
"3. c #7D514A",
"4. c #655A5A",
"5. c #7B5958",
"6. c #576645",
"7. c #55744F",
"8. c #767A5D",
"9. c #686954",
"0. c #494768",
"q. c #58587A",
"w. c #505372",
"e. c #675D63",
"r. c #615E77",
"t. c #576D69",
"y. c #696667",
"u. c #796C6A",
"i. c #787374",
"p. c #6F6D77",
"a. c #911A16",
"s. c #8B2718",
"d. c #AD220D",
"f. c #B82B13",
"g. c #8D1C2A",
"h. c #983429",
"j. c #852922",
"k. c #A72839",
"l. c #B22839",
"z. c #B73639",
"x. c #A92C2A",
"c. c #A31D2D",
"v. c #C63318",
"b. c #934838",
"n. c #874238",
"m. c #A74638",
"M. c #B84C3A",
"N. c #C7452C",
"B. c #BC2E45",
"V. c #BC384B",
"C. c #C1374F",
"Z. c #854E48",
"A. c #8D5B5C",
"S. c #885756",
"D. c #925E5B",
"F. c #934F46",
"G. c #B54C48",
"H. c #96655E",
"J. c #8D6B51",
"K. c #AA6857",
"L. c #986767",
"P. c #8F7074",
"I. c #A76D67",
"U. c #A67667",
"Y. c #A87675",
"T. c #B07B78",
"R. c #8E5C60",
"E. c #D15744",
"W. c #D36D56",
"Q. c #D27F6F",
"!. c #24883A",
"~. c #698B3D",
"^. c #359449",
"/. c #35A04D",
"(. c #518E51",
"). c #749448",
"_. c #49B355",
"`. c #57B65C",
"'. c #57936C",
"]. c #768D7B",
"[. c #5AA66D",
"{. c #58B870",
"}. c #6CB772",
"|. c #6AA659",
" X c #73CB6F",
".X c #79CD73",
"XX c #88A552",
"oX c #8F8F77",
"OX c #B6827D",
"+X c #9AB769",
"@X c #A4BD73",
"#X c #D1866B",
"$X c #8ACA79",
"%X c #9DC97B",
"&X c #AAC67C",
"*X c #3B4487",
"=X c #485290",
"-X c #546490",
";X c #797484",
":X c #6E708F",
">X c #5D68A6",
",X c #727BB2",
"<X c #4D59A0",
"1X c #907987",
"2X c #7E809E",
"3X c #6EAF8F",
"4X c #778CA8",
"5X c #77C681",
"6X c #8D898C",
"7X c #A58B92",
"8X c #AE8C89",
"9X c #878CA8",
"0X c #8991B2",
"qX c #9497AF",
"wX c #98AABD",
"eX c #B3B1B1",
"rX c #AB9DA5",
"tX c #C59992",
"yX c #D5A79B",
"uX c #C2A681",
"iX c #CBAEA8",
"pX c #E4BBAD",
"aX c #92CD85",
"sX c #A1C6A0",
"dX c #D1D1B1",
"fX c #E7C8B9",
"gX c #CBD9AD",
"hX c #B9BAC8",
"jX c #BBC4C1",
"kX c #D3D6D4",
"lX c #DDE6CC",
"zX c #E9E9E9",
"xX c #DCDDE0",
"cX c None",
/* pixels */
"cXcXcXcXcXcXcXcXcXcXcXcXcXcXcXcXcXcXcXcXcXcXcXcXcXcXcXcXcXcXcXcXcXcXcXcXcXcXcXcXcXcXcXcXcXcXcXcXcXcXcXcXcXcX",
"cXcXcXcXcXcXcXcXcXcXcXcXcXcXcXcXcXcXcXcXcXcXcXcXaX%X$X}.{. XcXcXcXcXcXcXcXcXcXcXcXcXcXcXcXcXcXcXcXcXcXcXcXcX",
"cXcXcXcXcXcXcXcXcXcXcXcXcXcXcXcXcXcXcXcXcXcX$X$X+X|.(.(.^.(.3XcXcXcXcXcXcXcXcXcXcXcXcXcXcXcXcXcXcXcXcXcXcXcX",
"cXcXcXcXcXcXcXcXcXcXcXcXcXcXcXcXcXcXcXcXcX$X X_.(.T U J J Y 3XwXcXcXcXcXcXcXcXcXcXcXcXcXcXcXcXcXcXcXcXcXcXcX",
"cXcXcXcXcXcXcXcXcXcXcXcXcXcXcXcXcXcXcXcXaX X_.!.U F D * * 8 4XwXcXcXcXcXcXcXcXcXcXcXcXcXcXcXcXcXcXcXcXcXcXcX",
"cXcXcXcXcXcXcXcXcXcXcXcXcXcXcXcXcXcXcXaX X_.!.U F D S * * 7 -X4XcXcXcXcXcXcXcXcXcXcXcXcXcXcXcXcXcXcXcXcXcXcX",
"cXcXcXcXcXcXcXcXcXcXcXcXcXcXcXcXcXcXcX X_.!.U F D S * * - - [ t.cXcXcXcXcXcXcXcXcXcXcXcXcXcXcXcXcXcXcXcXcXcX",
"cXcXcXcXcXcXcXcXcXcXcXcXcXcXcXcXcXcX.X`./.T U F D S * * & H #./.cXcXcXcXcXcXcXcXcXcXcXcXcXcXcXcXcXcXcXcXcXcX",
"cXcXcXcXcXcXcXcXcXcXcXcXcXcXcXcXcX+X`.!.Y U F D S * = S K I ~ [.}.}.'.cXcXcXcXcXcXcXcXcXcXcXcXcXcXcXcXcXcXcX",
"cXcXcXcXcXcXcXcXcXcXcXcXcXcXcXcXaX`._.Y U U F S * = w K ! ! (.(.(.(.(.cXcXcXcXcXcXcXcXcXcXcXcXcXcXcXcXcXcXcX",
"cXcXcXcXcXcXcXcXcXcXcXcXcXcXcXcX5X/.Y U F S S = I M ,.E ,.6.9.! R P ! cXcXcXcXcXcXcXcXcXcXcXcXcXcXcXcXcXcXcX",
"cXcXcXcXcXcXcXcXcXcXcXcXcXcXcX}.{.!.J K = - X + 5.P.Y.1X1X1X8XcXcXcXcXcXcXcXcXcXcXcXcXcXcXcXcXcXcXcXcXcXcXcX",
"cXcXcXcXcXcXcXcXcXcXcXcXcXcXcX[.[.T 6.J.3.g o # R.Y.1X8XqX1X7XcXcXcXcXcXcXcXcXcXcXcXcXcXcXcXcXcXcXcXcXcXcXcX",
"cXcXcXcXcXcXcXcXcXcXcXcXcXcXcXcX(.$.H.Z.Z x O O 5.Y.Q.7XqXP.eXfXfXcXcXcXcXcXcXcXcXcXcXcXcXcXcXcXcXcXcXcXcXcX",
"cXcXcXcXcXcXcXcXcXcXcXcXcXcXcXcXcX^ H.n.C A z o N L.Y.8X7X1XtXpXpXpXpXcXcXcXcXcXcXcXcXcXcXcXcXcXcXcXcXcXcXcX",
"cXcXcXcXcXcXcXcXcXcXcXcXcXcXcXcXcX9.U.b.b.A Z p N I.L.H.R.R.8XtXyXyXyXyXcXcXcXcXcXcXcXcXcXcXcXcXcXcXcXcXcXcX",
"cXcXcXcXcXcXcXcXcXcXcXcXcXcXcXcXcXcXK.K.b.F.3.<.S.I.Z.N N Z A.Y.OXOXOXyXcXcXcXcXcXcXcXcXcXcXcXcXcXcXcXcXcXcX",
"cXcXcXcXcXcXcXcXcXcXcXcXcXcXcXcXcXcXA Z.Z.Z.Z.R.L.I.W o X 4 1.S.L.L.L.8XcXcXcXcXcXcXcXcXcXcXcXcXcXcXcXcXcXcX",
"cXcXcXcXcXcXcXcXcXcXcXcXcXcXcXcXcXcXg $ x Z Z.A.L.L.<.@ X X N S.L.L.Y.cXcXcXcXcXcXcXcXcXcXcXcXcXcXcXcXcXcXcX",
"cXcXcXcXcXcXcXcXcXcXcXcXcXcXcXcXcXcX$ % z <.A.A.R.R.1.N $ # x +.cXcXcXcXcXcXcXcXcXcXcXcXcXcXcXcXcXcXcXcXcXcX",
"cXcXcXcXcXcXcXcXcXcXcXcXcXcXcXv.v.d.a % g 1.A.S.S.S.Z.3.1.W cXcXcXcXcXcXcXcXcXcXcXcXcXcXcXcXcXcXcXcXcXcXcXcX",
"cXcXcXcXcXcXcXcXcXcXcXcXcXcXG.N.v.f.d % c 3.D.D.A.S.A.H.I.cXcXcXcXcXcXcXcXcXcXcXcXcXcXcXcXcXcXcXcXcXcXcXcXcX",
"cXcXcXcXcXcXcXcXcXcXcX6XoXoXW.N.f.d.s.v E 1.S.H.H.H.I.U.cXcXcXcXcXcXcXcXcXcXcXcXcXcXcXcXcXcXcXcXcXcXcXcXcXcX",
"cXcXcXcXcX9.y.8.P.oXoXsXgXgX#Xz.d.d.s.x M =.6.5.K.U.U.cXcXcXcXcXcXcXcXcXcXcXcXcXcXcXcXcXcXcXcXcXcXcXcXcXcXcX",
"cXcXt E ^ XX@XgXdXlXlXlXgXuXW.B.f.a.d r I P P $.>.y.cXcXcXcXcXcXcXcXcXcXcXcXcXcXcXcXcXcXcXcXcXcXcXcXcXcXcXcX",
"cXcX0 y ^ XX+X&XaX+X@XXX).H.G.V.B.a.5 0 K L L G $.y.cXcXcXcXcXcXcXcXcXcXcXcXcXcXcXcXcXcXcXcXcXcXcXcXcXcXcXcX",
"cX. 0 0 I ~.~.).).).~.~ / m.V.V.k.f 4 7 K K H J L t.i.cXcXcXcXcXcXcXcXcXcXcXcXcXcXcXcXcXcXcXcXcXcXcXcXcXcXcX",
"cX  . . g ~ ~ ~.~ 6.~ ^ b.V.V.B.g.a , 9 K K H G L t.y.cXcXcXcXcXcXcXcXcXcXcXcXcXcXcXcXcXcXcXcXcXiXrX6XcXcXcX",
"cXX   . = ! 7.(.7.8.9.b.V.V.V.B.g.$ > 7 H H H H G $.9.cXcXcXcXcXcXcXcXcXcXcXcXcXcXcXcXcXcXcX#XtXrXP.4.u.cXcX",
"cXcXX @ q ^ 8.P.J.J.m.z.V.B.B.c.f < , 7 & 8 K G G L ,.cXcXcXcXcXcXcXcXcXcXcXcXcXcXcXcXcXW.Q.#XtXi.E v =.i.cX",
"cXcXo 0 x h.G.G.z.z.x.x.k.l.l.g.a 6 2 9 7 7 8 L G G L ].kXzXzXzXcXcXcXcXcXcXcXcXcXcXcXE.N.G.I.6X-.z g c *.cX",
"cXcX# z j.x.C.B.c.d p p $ d a.f % 4 _ _ _ ` e y G G L $.].jXxXkXcXcXcXcXcXcXcXcXcXcXE.E.z.b.L.y.E g g v +.cX",
"cXcXcXv A B.B.c.d $ m ;.+.z a s % O 4 e r r 5 4 0 w 8 H I t.hXhXhXcXcXcXcXcXh b.M.M.M.h.s.h.u.>.z $ g x N cX",
"cXcXcXc A A B f % e e.,Xw.r O % ,   O 5 5 l $ % , w 8 7 7 w 4XqXqX1X>.y.e.4 i C h.m.h.V V Z e.-.$ $ a x N cX",
"cXcXm b r b b i %  .:X,Xq.t . ; < ;   O $ $ O , ; w y w 7 e 4X0X9Xp.-.-.&.. $ a j h.k j B +.4.&.$ $ a a v cX",
"cXcXM m r r r q % 5 ;.e.*.b , > < < < , 2 6 1 2 : | t.0.#.w.qX0X9X;Xe.4.-.o $ a a j.d a h N >.&.% s a a N cX",
"cXcXcXq t r e q 0 + q *.b + 4 < < : < < 2 2 < 2 : e -X9X0XqX0X>X:Xp.u.P.i.0 $ x h V d a i N ;.+.$ p a a Z cX",
"cXcXcXt +.%.&.m n n b c v x 5 < : < < 2 1 1 2 < ; , @.;X9X9X1X:X:XcXcXcXcXcXg x B V j i i N -.%.5 p p h +.cX",
"cXcXcXcXM M :.:.:.*.M c v x r 2 > : > < ( ) ( > , , cXcXcXp.;Xp.cXcXcXcXcXcXcXcXcXB B B x N -.&.p p p x <.cX",
"cXcXcXcXcXt *.>.4.2.+.cXb c r 6 < : > < ) [ { ] 6 cXcXcXcXcXcXcXcXcXcXcXcXcXcXcXcXcXC A B N -.%.5 p p x :.cX",
"cXcXcXcXcXcXcXcX:.cXcXcXcX&.m e 2 > > < 1 [ ..o.0.cXcXcXcXcXcXcXcXcXcXcXcXcXcXcXcXcXcXC A Z *.E z p i Z 4.cX",
"cXcXcXcXcXcXcXcXcXcXcXcXcX=.t r ] ) < > < ) O.=X>XcXcXcXcXcXcXcXcXcXcXcXcXcXcXcXcXcXcXcXQ Q 2.-.N x x +.cXcX",
"cXcXcXcXcXcXcXcXcXcXcXcXcXcX,.m e | < < : 1 [ o.>X4XcXcXcXcXcXcXcXcXcXcXcXcXcXcXcXcXcXcXcXZ 2.4.E N *.*.cXcX",
"cXcXcXcXcXcXcXcXcXcXcXcXcXcX4.-.+.0.{ 2 : < ) O.=X,XcXcXcXcXcXcXcXcXcXcXcXcXcXcXcXcXcXcXcXcXcXy.e.:.:.cXcXcX",
"cXcXcXcXcXcXcXcXcXcXcXcXcXcXcX>.e.q.X.] 1 < 1 ' *X>X,XcXcXcXcXcXcXcXcXcXcXcXcXcXcXcXcXcXcXcXcXcXcXcXcXcXcXcX",
"cXcXcXcXcXcXcXcXcXcXcXcXcXcXcXcXe.-XX.| ) : : ) o.<X,XcXcXcXcXcXcXcXcXcXcXcXcXcXcXcXcXcXcXcXcXcXcXcXcXcXcXcX",
"cXcXcXcXcXcXcXcXcXcXcXcXcXcXcXcXw.w.{ { ) < : ( O.=X>XcXcXcXcXcXcXcXcXcXcXcXcXcXcXcXcXcXcXcXcXcXcXcXcXcXcXcX",
"cXcXcXcXcXcXcXcXcXcXcXcXcXcXcXcXq...[ { _ < : 1 [ *X<XcXcXcXcXcXcXcXcXcXcXcXcXcXcXcXcXcXcXcXcXcXcXcXcXcXcXcX",
"cXcXcXcXcXcXcXcXcXcXcXcXcXcXcX-Xw.[ { { ) < : < ) o.=XcXcXcXcXcXcXcXcXcXcXcXcXcXcXcXcXcXcXcXcXcXcXcXcXcXcXcX",
"cXcXcXcXcXcXcXcXcXcXcXcXcXcXcXw...[ } [ 1 > : < ) | cXcXcXcXcXcXcXcXcXcXcXcXcXcXcXcXcXcXcXcXcXcXcXcXcXcXcXcX",
"cXcXcXcXcXcXcXcXcXcXcXcXcXcXq.0.[ [ X._ < : : : 1 | @.cXcXcXcXcXcXcXcXcXcXcXcXcXcXcXcXcXcXcXcXcXcXcXcXcXcXcX",
"cXcXcXcXcXcXcXcXcXcXcXcXcXcX0.@.[ { { ( : : : < 2  .@.cXcXcXcXcXcXcXcXcXcXcXcXcXcXcXcXcXcXcXcXcXcXcXcXcXcXcX",
"cXcXcXcXcXcXcXcXcXcXcXcXcXcX=.+. .{ [ 2 : ; : < e e +.2.4.cXcXcXcXcXcXcXcXcXcXcXcXcXcXcXcXcXcXcXcXcXcXcXcXcX",
"cXcXcXcXcXcXcXcXcXcXcXcXcXcX=.M b @.) < ; ; > > + q z n M *.cXcXcXcXcXcXcXcXcXcXcXcXcXcXcXcXcXcXcXcXcXcXcXcX",
"cXcXcXcXcXcXcXcXcXcXcXcXcXcXcX*.@.@.] 4 3       o o o @ + q cXcXcXcXcXcXcXcXcXcXcXcXcXcXcXcXcXcXcXcXcXcXcXcX",
"cXcXcXcXcXcXcXcXcXcXcXcXcXcXcXcX+.<.5 4           o o o o o cXcXcXcXcXcXcXcXcXcXcXcXcXcXcXcXcXcXcXcXcXcXcXcX",
"cXcXcXcXcXcXcXcXcXcXcXcXcXcXcXcXcXZ n q + O o o o o o O o @ cXcXcXcXcXcXcXcXcXcXcXcXcXcXcXcXcXcXcXcXcXcXcXcX",
"cXcXcXcXcXcXcXcXcXcXcXcXcXcXcXcXcXcXM n b q 0 5 # # 5 # + q cXcXcXcXcXcXcXcXcXcXcXcXcXcXcXcXcXcXcXcXcXcXcXcX",
"cXcXcXcXcXcXcXcXcXcXcXcXcXcXcXcXcXcXcXcX+.m m m n n r q q cXcXcXcXcXcXcXcXcXcXcXcXcXcXcXcXcXcXcXcXcXcXcXcXcX",
"cXcXcXcXcXcXcXcXcXcXcXcXcXcXcXcXcXcXcXcXcXcXcXcXcXcXcXcXcXcXcXcXcXcXcXcXcXcXcXcXcXcXcXcXcXcXcXcXcXcXcXcXcXcX"
};
