/* XPM */
static char *result[] = {
/* columns rows colors chars-per-pixel */
"60 60 240 2 ",
"   c #1B061E",
".  c #1D0919",
"X  c #39040C",
"o  c #37120D",
"O  c #240B16",
"+  c #24051E",
"@  c #2C061C",
"#  c #240A1A",
"$  c #290818",
"%  c #340516",
"&  c #3C0514",
"*  c #34051C",
"=  c #3B061B",
"-  c #320A1F",
";  c #3C0A1C",
":  c #370913",
">  c #3A1219",
",  c #1C0723",
"<  c #1B0823",
"1  c #230623",
"2  c #2B0623",
"3  c #230924",
"4  c #2C0824",
"5  c #260B29",
"6  c #330723",
"7  c #3B0721",
"8  c #330923",
"9  c #3B0923",
"0  c #370C28",
"q  c #47080A",
"w  c #57060C",
"e  c #581507",
"r  c #430C14",
"t  c #480918",
"y  c #540B1D",
"u  c #570916",
"i  c #471518",
"p  c #551317",
"a  c #640A0D",
"s  c #69080C",
"d  c #780809",
"f  c #651809",
"g  c #76150C",
"h  c #660A17",
"j  c #740A14",
"k  c #771419",
"l  c #69161C",
"z  c #512419",
"x  c #772810",
"c  c #6E2812",
"v  c #430723",
"b  c #420A23",
"n  c #4B0B23",
"m  c #530C24",
"M  c #5B0A22",
"N  c #591A25",
"B  c #660B21",
"V  c #741726",
"C  c #6F1025",
"Z  c #572325",
"A  c #762B28",
"S  c #6D2A2F",
"D  c #7F4415",
"F  c #880B08",
"G  c #881409",
"H  c #9A1508",
"J  c #8A0B14",
"K  c #990B12",
"L  c #861519",
"P  c #981915",
"I  c #990F06",
"U  c #A41815",
"Y  c #B71719",
"T  c #A20F19",
"R  c #8B350E",
"E  c #8A2817",
"W  c #972A12",
"Q  c #843717",
"!  c #9D2A0E",
"~  c #B4280B",
"^  c #B4281A",
"/  c #B43816",
"(  c #A82F13",
")  c #871626",
"_  c #872426",
"`  c #972622",
"'  c #992831",
"]  c #89332E",
"[  c #A72827",
"{  c #B53829",
"}  c #AE1521",
"|  c #D81808",
" . c #D41416",
".. c #CD1015",
"X. c #F50B07",
"o. c #EB1908",
"O. c #F3160A",
"+. c #EA1315",
"@. c #EA0B08",
"#. c #CA3709",
"$. c #DA3806",
"%. c #C82917",
"&. c #D82A1A",
"*. c #CA391A",
"=. c #DA3617",
"-. c #D72504",
";. c #EB2C0A",
":. c #E62907",
">. c #F42D04",
",. c #EA370A",
"<. c #F5370B",
"1. c #E42915",
"2. c #E73619",
"3. c #F43311",
"4. c #D81F20",
"5. c #C82D25",
"6. c #D22F24",
"7. c #8A441A",
"8. c #974718",
"9. c #AA5A1A",
"0. c #99502C",
"q. c #A94522",
"w. c #B7462F",
"e. c #A75A27",
"r. c #B75426",
"t. c #B4513B",
"y. c #BA6A2D",
"u. c #DD470D",
"i. c #DB5909",
"p. c #C74611",
"a. c #D64818",
"s. c #D05614",
"d. c #E84508",
"f. c #F84D0A",
"g. c #EC5D03",
"h. c #E65607",
"j. c #F45503",
"k. c #FB5505",
"l. c #FA5B02",
"z. c #F65B09",
"x. c #EC4616",
"c. c #F44D12",
"v. c #E75D14",
"b. c #F75819",
"n. c #CF6A11",
"m. c #EA6907",
"M. c #FD6402",
"N. c #FD6A03",
"B. c #F46906",
"V. c #ED7C03",
"C. c #EB7507",
"Z. c #F67606",
"A. c #E76816",
"S. c #F86915",
"D. c #E57816",
"F. c #F77717",
"G. c #D64F24",
"H. c #F04921",
"J. c #CB7729",
"K. c #D36D2C",
"L. c #F77325",
"P. c #EB7727",
"I. c #B45947",
"U. c #D8861E",
"Y. c #EC8806",
"T. c #FC8B0C",
"R. c #F98A08",
"E. c #EE9603",
"W. c #EF9805",
"Q. c #FD9505",
"!. c #F39C04",
"~. c #FD9C04",
"^. c #F89509",
"/. c #EB8A19",
"(. c #F78816",
"). c #EA9818",
"_. c #F79818",
"`. c #ECA707",
"'. c #F5A302",
"]. c #FAA403",
"[. c #FAAC04",
"{. c #F6A908",
"}. c #FAB505",
"|. c #FABC04",
" X c #F8B909",
".X c #FAA413",
"XX c #F8A818",
"oX c #FCBC13",
"OX c #F9B817",
"+X c #E9A61B",
"@X c #DB8A27",
"#X c #EA8928",
"$X c #F48826",
"%X c #E69526",
"&X c #FA9826",
"*X c #FCAA23",
"=X c #FAB724",
"-X c #FFA037",
";X c #FDCA0C",
":X c #FBC705",
">X c #FDD405",
",X c #FEDD05",
"<X c #FED40C",
"1X c #FEDC0C",
"2X c #FCC513",
"3X c #FDCC13",
"4X c #FFC51D",
"5X c #FDD313",
"6X c #FFDC12",
"7X c #FED11B",
"8X c #FFDC1A",
"9X c #FEE404",
"0X c #FEEB04",
"qX c #FDE40C",
"wX c #FDEA0B",
"eX c #F7E60B",
"rX c #FDE313",
"tX c #FBEB13",
"yX c #FCE51B",
"uX c #FCEB1B",
"iX c #FCF116",
"pX c #FFC725",
"aX c #FFD827",
"sX c #FCEA23",
"dX c #FDED2B",
"fX c #FBE824",
"gX c #FDF32C",
"hX c #FCF226",
"jX c #FEEE32",
"kX c #FEF235",
"lX c #FEF43B",
"zX c #FFF93E",
"xX c #FEF544",
"cX c #FFF942",
"vX c #FFFB4C",
"bX c #FFF74C",
"nX c #FFFB52",
"mX c #FFFE5B",
"MX c #FFFF62",
"NX c #FFFF68",
/* pixels */
"# O O . 3 , , , < , , , , , , , , , , , < , , , , , , , , , , , , , , < < < , , , < . . , , , , , , , , , , , , , , , , ",
"< < < < < , , , , < , , , , , , , , , , < < , , , , , 5 1 , , , < < < < < < < < , , <   , , , , , , , , , , , , , , , , ",
"< , < , , , , , , , , , , , , , , , , , < < < < , , , v + , , , < < < < < < < < , , < < < < < < , , , , , , , , , , , , ",
"< < , , , , , , , < , < , , , , , , , , < < < < , < 5 C X , , , < < < < < < < < , < < < < < < < , , , , , , , , , , , , ",
", , , < , , , , , , < , , , , , , , , < , , < < , , $ T J & 1 , < < < , < < , , < , < < < < < < < < < < , , , , , , , , ",
", , , , , , , , , < , , , < , < , , , , < , < < , , $ T  .Y w + + 3 , < < , , , , , < < < < < < < < < < , , , , , , , , ",
", , < < < < , , , , , , < , , , , , < < < < < < , , @ j ..X...K y & $ , < < , , < < < < < < < < < < , , , , , , , 5 5 , ",
", , < < < , , , , < , < , , , < , , , , < < < < , , + s ..X.@. .K ) p + < < , , , , < < < < < < < < , , , , , , , , , , ",
"< , , < < < , , , , , , , , , , , , , , < , , , , , + a ..o.c.O.+.d { X < < , , , , , , , , , , < < < , , , , , , 1 , 1 ",
"< < , , < < , < , , , , < , < , , , , , , , , , , , O K | ;.L.O.+.T ( A < < 1 , , , , , , , , , < < , , , , , , , , , , ",
", < , < < < < < , , , , , , , < , < , , , , , , , + w ..:.F.(.O.X...H A 1 , , , , , , , , , , , , , , , 1 , , , , 1 5 , ",
"< , , , < < < < < , , , < , , , , , , , , , 1 1 + q Y o.S.*Xz.O.X.O.H Z 1 , , , , , , , , , , , , < , , , , , , , , , 1 ",
"< < , , , , < < , , , , , < , , , , , , , + t B j Y o.,._.*X:.O.O.+.P %   , 1 , , , , 1 , , , , , , , , , , , , 5 , , 1 ",
"< < , , , , < < , , < , , , , , , , , , + @ _ C P +.O.;.(.&X|  .K T ' = 1   , , , , , , , 1 , 1 , , , , , , , , 1 , , 1 ",
"< < < < < < < < , , , , , , , , , , , , & E ' F 4.O.3.X.m.&X-.I & & V t , 1 , , , , , , , , , , , , , , , , , , , , , , ",
"< < < < < < < < , < < , < , , , , , 1 5 i { u Y +.;.S.@.v.-X-.I @ 2 m = < + 1 1 1 1 , 1 , 1 , 1 , , , , , , 1 1 , 5 1 1 ",
", < < < , , , , , , , , , , 1 1 1 1 2 2 i w.d 4.o.L.T.| m.F.o.P % 4 - - @ 0 8 2 1 1 1 1 1 1 1 , 1 1 1 , , 1 , 5 1 , 1 3 ",
", < < < , , , , , , , , , 1 1 1 1 1 1 6 i 0.I 1.o.&XOXY..XS.o.Y & * * 4 % N t $ 2 1 1 1 1 1 1 , , 1 , 1 1 , , , 3 3 3 3 ",
", < , < , , , , , , , , 1 1 1 1 1 1 & S 9 r P o.o.F.3X<X;XT.o.&.F X X * r _ ` t 2 2 1 1 1 5 1 1 , 1 1 , , 1 , 1 , 5 3 3 ",
", , , , , , , , , , 1 1 1 1 1 1 2 = ) C * * w 6.>.:._.<X>X2Xm.$.&.^ [ u & [ 4.L = 2 5 5 5 2 1 1 1 1 1 1 1 , 1 1 1 1 3 3 ",
", , , , , , , , , , 1 1 1 1 2 2 @ k { h 7 6 = j %.1.$._.2X1X;X.XA.$.&.a = ) 1.%.k & 2 5 2 1 5 1 1 1 1 1 1 1 , 1 1 3 1 1 ",
"< , , , , , 1 , 1 1 1 1 2 2 2 2 t ^ 5.w v 7 v v a U =.,./.5X,X1X5X/.,.G r k ;.;.&.j 7 4 2 5 1 5 5 1 1 1 1 1 1 1 1 1 1 5 ",
"< < , < , , , , , 1 1 1 2 2 6 % P 1.6.w 7 v v v n u s =.,.Y.rXeXqX3X$.5.w u %.;.>.&.L & 0 2 2 2 2 1 1 1 1 1 1 1 1 1 1 1 ",
"< < < < , , 1 1 5 1 1 2 2 2 6 t =.3.2.s 7 v v v n v u U 2.$.7X0X0X6XC.1.P w P &.>.>.&.k 7 2 2 5 2 2 1 1 1 2 1 1 1 2 1 2 ",
"< < , , , , , 1 1 1 1 2 2 2 = E u.b.,.! w w k y m m u P 2.:.OX9X0X0X7Xd.2.! a ~ ,.>.,.&.f - 4 4 2 2 2 5 1 1 1 1 1 2 5 % ",
", , ,     , , 1 1 1 1 2 4 4 q a.G.L.>.2.^ { [ a M M h U 2.;..XqX0X0XqXXX,.2.L d %.<.b.A.*.e - 4 2 5 4 2 2 2 2 5 2 2 2 % ",
", ,   , 1 , 1 1 5 2 2 2 8 - s #._.P.,.<.<.<.^ j B B j %.x.#.4X0X0X0X9XrXY.d.*.g H ,.h.=XA./ & 8 6 4 4 4 2 2 2 2 2 3 2 % ",
", , , , , 1 1 2 2 2 2 6 = X ` d.pX_.$.;.,.,.=.G j j K u..X;XqX0X0X0X0XwX7Xh.x.^ F H.h.5X7Xn.g * 6 8 8 4 2 2 5 2 2 2 4 $ ",
"1 , + , 1 1 1 2 2 6 6 6 h w { F.rX5X`.Y.Y.D.h.=.~ ~ a.d..XqX0X0X0X0X0XqX6X.X,.=.I a.B.6XrX*X! p 8 6 8 6 6 2 2 2 2 6 8 8 ",
"  , , , , 1 1 1 2 2 6 7 E f q._.tXwXqXtX8XpX$Xj.c.c.f.u.!.wX0X0X0X0X1X{.XX4Xd.2.~ a.Z.rXeXpXs.f 8 8 8 8 2 6 6 2 2 2 * 8 ",
"1 , , 1 1 1 2 1 2 6 9 r w.g r.%XtX0X0X0X;Xi.B.k.f.z.C.C.5XiX0X0X0XwXoXh.g.*Xz.f.$.c.C.7X XpXi.! 8 0 6 6 6 2 6 2 2 6 8 8 ",
"+ , , , 1 2 1 2 2 6 9 t t.Q q.D.8X0X0X0X1XY.g.k.k.m.2X5XuXgXeX0X0XqX^.j.j./.z.f.d.c.g.OXs.*Xh./ 7 9 0 6 2 8 6 6 6 6 8 8 ",
", , , 1 1 1 2 5 6 6 9 t A I.x v._.<XwX0XwX6XY.B.g.Y.rXiXlXxXeXeXeXeXY.k.l.S.l.k.j.z.h.OXi.S.j.*.m 9 9 6 6 6 6 6 6 6 0 9 ",
", , 1 , 1 1 2 2 6 6 9 t i l l ^ v.m.OX`.3XwXtX<X<X6XiXkXmXnXhXeXiXeXV.l.M.M.l.l.C.Y.).pXi.k.k.p.l b 9 6 6 6 6 6 6 6 6 6 ",
"1 , , , 1 1 5 2 8 8 9 b n M a d a.S.C.C.`.wXeXwXwX0XiXnXNXMXvXgXwXqXY.M.N.N.M.M.^.aXXX^.g.k.k.#.] m 7 6 6 6 6 6 6 6 6 9 ",
"    , 1 1 1 2 6 8 9 b n m w t.! ~ v.B.B.V.5X0X0X0XwXhXMXNXMXlXgXiXrXY.N.Z.Z.N.B.W.3XC.B.v.v.S./ ] N = 7 6 6 6 6 6 8 8 8 ",
", , 1 1 1 1 5 6 - 9 v n M a G.A.~ i.m.(.Y. XwX0XwXwXhXmXMXmXgXeXwXuX'.Z.Y.oXC.B.E.oXB.S.( F K.W I.N 7 7 8 8 * 6 6 6 6 9 ",
", , , 1 1 1 5 6 8 9 v n m s K.S.v.g.V.pX`.oXwX0XwXiXuXzXnXmXvXhXwX0X3X!.|.qXE.V.`.<XC.v.F d I.] y.: 7 7 6 4 2 2 2 8 8 8 ",
"+ , 1 , 1 1 2 6 8 7 v n u E D.T.N.Z.V.7XeXrX0XtXgXcXkXgXgXxXnXnXzXiXtXqXqX0X,X>X9XrX).p.J j ) ] u b 9 6 6 6 @ 2 2 6 8 8 ",
", , , 1 1 1 2 6 9 7 v n l r.^. XZ.R.V.:XqXeXwX0XiXhXcXcXkXdXvXnXvXzXhXeX9X9X9X9X9X6X_.*.J V C p m b v 6 6 @ 2 + + 2 2 8 ",
", , , 1 1 5 2 8 8 ; b n W D.3X1XE.E.E.!.:XqX9X0X0XtXlXlXkXsXxXnXnXvXkXwX9X0XwX9X0X<XY.p.J ) B B m v 0 7 6 2 + + 1 2 2 6 ",
", , , , 1 3 2 4 8 9 i u s.W.qXeX1X5X3X[.!.|.qX0XeXtXlXgXtXyXkXbXnXlXuXqXeXuXhXwX9X<XE.D.F G k M m v 9 6 2 2 1 1 1 1 1 2 ",
", , , , < 1 1 4 8 7 t p D.[.9X9X9X9X1X'.~.'.:X9X9XeXkXlXyXeXjXbXvXdXeX9XwXkXcXdXtX1X'.(.s.K.E m n 9 9 6 2 2 1 1 1 + 1 1 ",
", , , , , 3 1 2 6 - t x #X}.,X9X9X9X1X[.].'.:X9X0XeXdXxXjXyXxXbXvXdXqX9XrXzXvXcXgXqX|.W._.$Xx y n 9 6 6 2 1 1 , 1 1 , , ",
", < , , , 1 1 2 4 0 r x /.[.9X9X9X9X,X|.[.[.:X,X9XqXsXxXxXxXbXbXxXdXeXqXuXkXxXgXuXwXqX>XoX(.R y b 9 8 2 1 3 , 3 1 1 1 1 ",
", , , , < 3 , 1 # Z A p @XW.1X9X9X0X9X>X|.}.>X9XtXyXsXxXxXxXxXxXxXlXfXdXdXjXlXyXeXqX9X,X;X^.9.p 7 9 8 2 1 1 , , , 1 1 1 ",
"< < , , < < < < 5 z J.Q n.^.}.<X:X:X,X,X>X>X,X,XyXdXjXlXxXlXlXlXlXlXkXkXjXjXlXfXrXqX9X,X<X].#Xl 9 8 6 1 1 < , 1 , , , 1 ",
"< < < < < < . < 5 i J.P.C.T.!.}.'.[.>X,X,X,X,X,XyXjXjXkXkXkXkXjXkXjXkXlXlXjXjXkXdXeX1X:X|.[.%Xx 8 8 2 2 , , , 1 , , 1 , ",
", < , , , , < < 5 o e.$XT.R.Q.~.~.].|.9X,X9X,X,X1XrXsXdXjXjXjXjXjXjXjXjXjXjXjXjXsXqX:X'.].~.$X8.0 4 5 1 , 1 , , , , , , ",
", , , , , , , , < 1 z #XT.R.Q.~.~..X}.1X,X,X,X,X,XeX1XuXdXdXdXdXdXdXdXdXdXdXdXfXyX>X:X~.Q.Q.#X7.e.# 3 3 , , 1 , , , , , ",
"< , < , < , , , , < # e./.^.Q.^.Q.].}.;X>X>X,X,X,X>X1XuXyXuXsXsXsXsXsXsXsXsXsXyXrX:X}.{.Q.R.D.n.e.# 5 < , , , , < < < , ",
", , , , < , , , , , < - y./.^.~.~.].}.|.:X:X,X9X1X>X>XrXyXyXyXyXyXyX8XyX8XfX8X8X7X X[.{.R.R.R.P.7.3 < < , , , , < < < < ",
", , , , < < < < , , , 5 o D J.@X_..X.X X[.}.;X1X1XrXrXrXrXrXrXrXrXrX6XyX8X3XOX+X).*X_.T.R.R.#Xy.: , , , , , , , , , , , ",
"< , , , < < < < , , , , 3 3 > Z 9.J.@X).XX.X}.;X5X6X1X6X6X6X6X1X6X6X5X5XoX=X@XQ f 9.J.D.K.y.7.O , , , , , , , , , , , , ",
"< < , , , , < , , , , , < < , , . O ; p 7.J.%X.XOXoX4X3X2X2X;X2X2XOXOXXXU.8.e p i : $ O O O .   , , , , , < , , , , < < ",
"< < , , , , , , , , , , , , , , < . 5 4 > o q c 0.y.J.@X%X%X%X%X@XJ.e.x q p v 6 8 4 #         < < < , < < < < < , < < < ",
"< < < < < < < , , < < , , , , , < 1 1 5 2 0 0 7 r t e e e f f f e e r r t 6 2 2 + + +       < < < < < < < < < < < < < < ",
"< < < < < < < , < < , , , , , , 3 < 1 1 1 1 2 2 2 8 8 9 b 9 b 9 0 8 8 8 2 2 1 1 1   , , <   < < <   < < < < < < < < < < ",
", , < < < < , , , , < < , , , , , , , , , , 1 1 1 1 1 2 2 2 2 2 2 + 2 2 2 1 + , , , <     < < < <   < < < < < < < < < < ",
"< < < < < , , , , , < < , , , , , , , , , , , , 1 , , ,   ,     , 1 , ,   , , , , , ,       <   < < , < < < < < < < < < "
};
