/* XPM */
static char *result[] = {
/* columns rows colors chars-per-pixel */
"60 60 43 1 ",
"  c #020205",
". c #04050A",
"X c #08070E",
"o c #06090D",
"O c #0B0A0E",
"+ c #060A10",
"@ c #0C0E11",
"# c #0D1113",
"$ c #111215",
"% c #13151B",
"& c #16191E",
"* c #1B1A1F",
"= c #151A21",
"- c #1A1D23",
"; c #1F1F28",
": c #201F25",
"> c #1E2225",
", c #1E2329",
"< c #202327",
"1 c #23262C",
"2 c #25282E",
"3 c #282B2F",
"4 c #262B31",
"5 c #2A2E34",
"6 c #2B2F38",
"7 c #302F35",
"8 c #2C3036",
"9 c #2E343B",
"0 c #313237",
"q c #31363D",
"w c #34393E",
"e c #2F3640",
"r c #323740",
"t c #333A41",
"y c #393D43",
"u c #3D4247",
"i c #3E434A",
"p c #404347",
"a c #41464B",
"s c #43494E",
"d c #434750",
"f c #444A51",
"g c #484D52",
/* pixels */
" .......oooooooooooO+++...X..X.X#++++++++ooo#++#oo#oooo##ooo",
".@%1730000yupuuupuuuiiye.+rpypppiiiiiiiiiiiiiiiiuuusuuuuu8#o",
"+>10000uyyussssssdssfdif-.;tgssgiiiiiiiiiiigiiiiiissfiiggg<#",
"+1833133889ww0wwqtwttttty6==<38qe9uuuuu4e99e99e98998988wsg3#",
"#171<<335499eeqqqqqqeqeeryy9;#4t999999949968846488888888ws8#",
"#13<31334399wqqqqteqqeqerqqty<-q999994>>48688868888888883w3#",
"#131111355999eqq9q9qq9q99q99qq-9u99994%%>8888888888488848w3#",
"#13<11173399eee9qeeee9e996996q94eu9884=%,8888888888888883w8#",
"%1411113350qqqeqeqeee99996669999ee9649,,88888888884888894e8#",
"#15,11133599eqe99e9e9e696666699q9989686988888888888894848e8#",
"#15>1125458qeee9e9e9e99666669688668886688888888884888894888#",
"#1311113588qeeeq9ue99966666644996688648888888888888888888w3#",
"#2411115459q9qqq9ee9988666661;664888888988888888884988883w8#",
"#14111144589qqq999999968666666468888484444444448848848883w3#",
"#24,1115588qqw9999u9955666666664444442424,,4,488888888888w3#",
"#2411<14548999899998505566654444224,22,,444,4884889488888w8#",
"#13<1144444u9888484894988844,2,2,2,>222222<24988888888880w3#",
"#1311<24848e889898944488444,,42,2>2222222243488888888898wy8#",
"#231<21494,,88888988994442,,,22,,222<222224888888388388w0w0#",
"#43<1<2494,=4848448884442222424422,,2<2224888888883889w9ww3#",
"#38,1,24444888888884422,11;411412,2,,224448888888888899www3#",
"#88212144249888889834422414;,422222,2,2488848888888889w9ww3#",
"$388,,,4444888888989842214144122,42222448888888988848w8www3#",
"$8832,244448888888888844114111212222448488888888848989wwww8#",
"%33731132,48888885646e4411141422224488888888888888e9ee999w8#",
"$3881<<222888888866644441;=1412244488888888848884944e9e9ww3#",
"$3772,2222458888886644411==;;44e899888888888888898,,9999ww3#",
"$1731,>124498444486444,41;=1444484899849888888488999eeeeww3#",
"#282>,>42,554542444414114;4;;;444444888984888888889eeee9ww8#",
"#<3>>>>242554,2,,44,14114414444;4,,444488888888888e9eee90w8#",
"#<3>>,,43242,4224,,44;12;4114111,4,4,,44948888888999eeeeww3@",
"#38>>,,,22,2,23,224,22;12;22;121,4,,4888888888888999ee990w8#",
"#<3><<<33><2<<>211<11111111<11212113657765858888999w9wq99w8#",
"#33><<<3>><<2>>>113<111<1113111111155555588888859999q9q99y3#",
"#<3><>>>>>3<2<>>11131<3311<3111111577566655868889999ew9qww7#",
"#<3><<>33<3322,211<<111<11112132255565465958589899ete99q903#",
"#<3>>><3233883221113<13<<311333556565:-588888899ee999t9e8$>#",
"#<3><<<<<3398322111<13<11<13333557555;=598844999t999e9e9>>8#",
"#<3><<<<1238332211<1111111333737555554476866889e9tt9e9t88w8o",
"#33><<<331383222<131111111<11135757655656666699eet9e9tt9wy8#",
"#<3><><<22883<3<1111<1111111<111559566868886699eeeee9et9wy3@",
"#33>1<<222333<<21111111<111112355558888488886999eeeett9t0y0#",
"#<3><<<<222<<12111111111<1222337558588886666969eeeeettte0u0#",
"#<3><<<2<2<21111111111<313335755565888886999669eeueuttteww3@",
"$<3><<<2222>&>111111111111134537759588888999999eeee9twww0w8#",
"$33><><23>,-&&11111111111111123355758488899e999eue9=4wwwww8#",
"#<3>><,<2>,>%&111111<1111221122556654,848e9999eeue4=>9w9ww8#",
"#23><<,23,23>2332221111111111146067588988ee9eeeeeue89ew8wy3#",
"#35:<:<2414616655542222212121266557655959qq99eqeueu9ee9eww8#",
"#<3<:<:221666776676::2111112:27759566755qqr99eqtueeue99q9y8#",
"#<3<::1111576767665211422244456657655506qq9e9qee9eeqe9e9ww3@",
"#33<1::14146766576646666656567665506990999e9eeeqe9eee8uq0w0#",
"$16::1:4224667666666766765055669553850999e999r9eee9eeu9eqw8#",
"$26;11:22157066777556776565676775<38qq99999er9ee68u99899ww8#",
"@7673:222246676665516666506067791=wqw8q999qqqr0r9eeeu46eww7#",
"@77774114:4666779566776756556q97-1wqqqq9q66qq9qq9999999e0u3#",
"@3770w70q779700000q900r7070900q4$4trw0y0y62rrrrreeetwwwwww1#",
"X:7077777790rrr00qq0000r0r00731%X%pq0q0r00r0rr0qee9e9wwq811O",
".$*:***::::11:3:1111113:3:-@X.   .37311111:2;2;;1122,22213$ ",
"  XXOOO$@OO@@@@@@@OO$OO@@X..   . .X$$OOO@@@@@O$@+#+@@@##Oo  "
};
